HIERARCHY
ROOT root
{
	OFFSET	0.000000	0.000000	0.000000
	CHANNELS 6 Xposition Yposition Zposition Zrotation Yrotation Xrotation
	JOINT lhipjoint
	{
		OFFSET	0.000000	0.000000	0.000000
		CHANNELS 3 Zrotation Yrotation Xrotation
		JOINT lfemur
		{
			OFFSET	1.656736	-1.802822	0.624766
			CHANNELS 3 Zrotation Yrotation Xrotation
			JOINT ltibia
			{
				OFFSET	2.597200	-7.135754	0.000000
				CHANNELS 3 Zrotation Yrotation Xrotation
				JOINT lfoot
				{
					OFFSET	2.492357	-6.847701	0.000000
					CHANNELS 3 Zrotation Yrotation Xrotation
					JOINT ltoes
					{
						OFFSET	0.197038	-0.541357	2.145811
						CHANNELS 3 Zrotation Yrotation Xrotation
						End Site
						{
							OFFSET	0.000000	-0.000000	1.112490
						}
					}
				}
			}
		}
	}
	JOINT rhipjoint
	{
		OFFSET	0.000000	0.000000	0.000000
		CHANNELS 3 Zrotation Yrotation Xrotation
		JOINT rfemur
		{
			OFFSET	-1.610701	-1.802823	0.624765
			CHANNELS 3 Zrotation Yrotation Xrotation
			JOINT rtibia
			{
				OFFSET	-2.595021	-7.129768	0.000000
				CHANNELS 3 Zrotation Yrotation Xrotation
				JOINT rfoot
				{
					OFFSET	-2.467804	-6.780241	0.000000
					CHANNELS 3 Zrotation Yrotation Xrotation
					JOINT rtoes
					{
						OFFSET	-0.230239	-0.632577	2.133676
						CHANNELS 3 Zrotation Yrotation Xrotation
						End Site
						{
							OFFSET	-0.000000	-0.000000	1.115690
						}
					}
				}
			}
		}
	}
	JOINT lowerback
	{
		OFFSET	0.000000	0.000000	0.000000
		CHANNELS 3 Zrotation Yrotation Xrotation
		JOINT upperback
		{
			OFFSET	0.019612	2.054496	-0.141116
			CHANNELS 3 Zrotation Yrotation Xrotation
			JOINT thorax
			{
				OFFSET	0.010210	2.064356	-0.059210
				CHANNELS 3 Zrotation Yrotation Xrotation
				JOINT lowerneck
				{
					OFFSET	0.001509	2.068054	0.008037
					CHANNELS 3 Zrotation Yrotation Xrotation
					JOINT upperneck
					{
						OFFSET	0.007130	1.567112	0.149683
						CHANNELS 3 Zrotation Yrotation Xrotation
						JOINT head
						{
							OFFSET	0.034286	1.560409	-0.100058
							CHANNELS 3 Zrotation Yrotation Xrotation
							End Site
							{
								OFFSET	0.013051	1.625595	-0.052648
							}
						}
					}
				}
				JOINT lclavicle
				{
					OFFSET	0.001509	2.068054	0.008037
					CHANNELS 3 Zrotation Yrotation Xrotation
					JOINT lhumerus
					{
						OFFSET	3.542050	0.904362	-0.173638
						CHANNELS 3 Zrotation Yrotation Xrotation
						JOINT lradius
						{
							OFFSET	4.865130	-0.000000	-0.000000
							CHANNELS 3 Zrotation Yrotation Xrotation
							JOINT lwrist
							{
								OFFSET	3.355540	-0.000000	0.000000
								CHANNELS 3 Zrotation Yrotation Xrotation
								JOINT lhand
								{
									OFFSET	1.677770	-0.000000	0.000000
									CHANNELS 3 Zrotation Yrotation Xrotation
									JOINT lfingers
									{
										OFFSET	0.661175	-0.000000	0.000000
										CHANNELS 3 Zrotation Yrotation Xrotation
										End Site
										{
											OFFSET	0.533057	-0.000000	0.000000
										}
									}
								}
								JOINT lthumb
								{
									OFFSET	1.677770	-0.000000	0.000000
									CHANNELS 3 Zrotation Yrotation Xrotation
									End Site
									{
										OFFSET	0.541196	-0.000000	0.541196
									}
								}
							}
						}
					}
				}
				JOINT rclavicle
				{
					OFFSET	0.001509	2.068054	0.008037
					CHANNELS 3 Zrotation Yrotation Xrotation
					JOINT rhumerus
					{
						OFFSET	-3.498016	0.759940	-0.326156
						CHANNELS 3 Zrotation Yrotation Xrotation
						JOINT rradius
						{
							OFFSET	-5.026490	-0.000000	0.000000
							CHANNELS 3 Zrotation Yrotation Xrotation
							JOINT rwrist
							{
								OFFSET	-3.364310	-0.000000	0.000000
								CHANNELS 3 Zrotation Yrotation Xrotation
								JOINT rhand
								{
									OFFSET	-1.682160	-0.000000	0.000000
									CHANNELS 3 Zrotation Yrotation Xrotation
									JOINT rfingers
									{
										OFFSET	-1.730406	-0.000000	0.000000
										CHANNELS 3 Zrotation Yrotation Xrotation
										End Site
										{
											OFFSET	-0.588872	-0.000000	0.000000
										}
									}
								}
								JOINT rthumb
								{
									OFFSET	-1.682160	-0.000000	0.000000
									CHANNELS 3 Zrotation Yrotation Xrotation
									End Site
									{
										OFFSET	-0.597863	-0.000000	0.597863
									}
								}
							}
						}
					}
				}
			}
		}
	}
}
MOTION
Frames:	8
Frame Time:	0.008333
	9.557320	16.020599	-40.693100	-5.606340	-5.684390	-0.221600	0.000000	-0.000000	0.000000	-9.329288	-12.852474	-39.022781	4.237188	12.469515	37.413830	0.259709	5.382885	-13.110087	0.287332	-3.447239	-9.526491	0.000000	-0.000000	0.000000	29.373158	-3.037724	14.253702	-0.264139	-3.306309	9.132729	-1.220988	1.373469	-20.482639	-0.009581	-0.632022	1.736804	7.372790	0.611799	12.576200	0.829941	1.774400	3.178510	-3.554390	0.834225	-3.497880	0.355122	1.139920	-12.191300	-4.967230	1.361360	-6.788760	-1.565310	0.627240	-0.054032	0.355122	0.000000	0.000000	-91.953796	12.359011	-16.422426	7.345614	-12.486639	-0.804702	-0.000000	0.000002	-12.363196	26.843103	17.307680	8.562183	-7.125019	0.000000	0.000000	-1.074497	49.228218	-0.112050	0.355122	0.000000	0.000000	78.647438	18.733820	46.967899	-38.295696	47.027115	-17.181623	0.000000	-0.000002	-21.534393	-32.913929	18.305342	-11.491422	7.125019	0.000000	0.000000	-3.099707	-8.497252	-2.611591
	9.572070	15.996800	-40.504902	-6.020949	-6.084250	0.151414	0.000000	-0.000000	0.000000	-8.199671	-13.443748	-39.372719	3.813410	11.907886	35.406883	0.244941	6.129033	-13.570527	0.280590	-3.406893	-9.413704	0.000000	-0.000000	0.000000	29.633726	-2.947575	15.338416	-0.193936	-2.836001	7.822495	-1.153013	1.100246	-19.965601	-0.007268	-0.550438	1.512535	7.661150	0.523128	12.508099	1.019530	1.705330	2.997010	-3.507571	0.787398	-3.656700	0.003901	1.364040	-11.989601	-4.803160	1.699880	-6.813449	-1.439720	0.808019	-0.092121	0.003901	0.000000	0.000000	-92.623528	12.945333	-18.659021	7.228891	-12.295335	-0.779651	0.000000	0.000000	-10.949697	26.213415	16.903324	8.146832	-7.125019	0.000000	0.000000	-1.618035	48.685432	-0.147113	0.003901	0.000000	0.000000	78.363113	19.436062	47.563301	-38.709209	47.286293	-17.484818	0.000000	-0.000002	-21.240597	-32.724430	18.123953	-11.304053	7.125019	0.000000	0.000000	-3.004753	-8.744211	-2.516587
	9.590130	15.973500	-40.309101	-6.447449	-6.487130	0.377493	0.000000	-0.000000	0.000000	-7.146657	-13.962984	-39.628765	3.503717	11.468961	33.878300	0.227135	7.002661	-14.166302	0.396965	-4.045339	-11.204248	0.000000	-0.000000	0.000000	29.875153	-3.066761	16.917421	-0.109349	-2.132171	5.871067	-1.040269	0.482499	-19.128244	-0.000002	0.010027	-0.027550	8.446471	0.394566	13.233600	0.780129	1.734100	2.389840	-4.234719	0.734533	-4.662470	0.140001	1.542730	-11.564100	-4.348820	1.931820	-6.660580	-1.310850	0.927392	-0.111750	0.140001	0.000000	0.000000	-92.463524	14.294544	-19.407495	7.209413	-12.263376	-0.775509	-0.000000	0.000002	-10.307300	25.978947	16.848366	8.038869	-7.125019	0.000000	0.000000	-1.836310	48.588669	-0.162612	0.140001	0.000000	0.000000	78.860344	19.215879	48.034286	-39.171349	47.571213	-17.825159	0.000000	0.000000	-20.843292	-33.174263	18.616407	-11.788092	7.125019	0.000000	0.000000	-3.219813	-8.085840	-2.739365
	9.614400	15.966700	-40.096802	-6.241850	-6.860220	0.347139	0.000000	-0.000000	0.000000	-6.951511	-14.441029	-39.365818	3.230935	11.059826	32.481907	0.231964	7.621746	-14.882263	0.403109	-4.076169	-11.291051	0.000000	-0.000000	0.000000	29.347885	-3.474772	19.181337	-0.029083	-1.100892	3.026455	-0.867693	-0.577440	-17.821175	-0.017082	0.843838	-2.319232	8.348139	0.491029	12.472000	0.709546	1.733160	2.979070	-4.223450	0.796881	-3.618390	0.084176	1.506950	-12.123299	-4.408609	1.887840	-6.835730	-1.320240	0.901817	-0.077830	0.084176	-0.000000	0.000000	-92.651024	13.601278	-21.198227	6.918270	-11.784660	-0.714859	0.000000	0.000000	-8.551023	26.016754	17.123373	8.177979	-7.125019	0.000000	0.000000	-1.850653	48.894024	-0.177792	0.084176	-0.000000	0.000000	78.550224	20.650526	47.926666	-39.476036	47.756378	-18.050385	-0.000000	0.000002	-20.693190	-33.688942	18.897224	-12.183446	7.125019	0.000000	0.000000	-3.504195	-7.651334	-3.012221
	9.635750	15.963900	-39.878101	-6.052370	-7.426450	0.170873	0.000000	-0.000000	0.000000	-6.709510	-14.690436	-38.918900	3.049311	10.774456	31.522938	0.286199	7.750700	-15.770504	0.263263	-3.300863	-9.117525	0.000000	-0.000000	0.000000	28.828060	-3.823964	21.756952	-0.000000	0.000000	-0.000000	-0.678026	-1.647299	-16.235651	-0.061315	1.597712	-4.395123	8.147461	0.540213	13.035001	0.654453	1.836120	2.764970	-4.204090	0.820372	-4.146210	0.033931	1.534630	-12.439300	-4.451170	1.957510	-6.178441	-1.319700	0.922741	0.183792	0.033931	0.000000	0.000000	-92.938942	14.398020	-22.221401	6.784808	-11.564540	-0.687854	0.000000	-0.000002	-8.021956	25.792725	17.001266	8.042795	-7.125019	0.000000	0.000000	-2.046105	48.725788	-0.188107	0.033931	0.000000	0.000000	78.540375	20.755627	48.136284	-39.761406	47.927902	-18.261929	0.000000	-0.000002	-20.529598	-33.813789	18.655542	-12.092860	7.125019	0.000000	0.000000	-3.620817	-7.901793	-3.095009
	9.654730	15.943700	-39.657200	-6.137900	-7.948899	0.011803	0.000000	-0.000000	0.000000	-6.183670	-14.913476	-38.644806	2.951885	10.616757	30.997997	0.303682	8.159611	-16.418636	0.243254	-3.173893	-8.763258	0.000000	-0.000000	0.000000	28.715117	-3.668875	22.876015	-0.000000	-0.000000	0.000000	-0.673176	-1.760350	-16.233442	-0.095105	1.988871	-5.474895	8.000570	0.580637	12.951301	0.828317	1.853810	3.030720	-3.933320	0.850743	-3.827520	-0.057322	1.669110	-12.636699	-4.719951	2.135900	-6.395010	-1.382520	1.010890	0.154200	-0.057322	0.000000	0.000000	-93.571144	14.438607	-23.283226	6.687449	-11.403711	-0.668466	-0.000000	0.000002	-7.377778	25.284882	16.272470	7.539958	-7.125019	0.000000	0.000000	-2.401795	47.856701	-0.169377	-0.057322	0.000000	0.000000	78.284088	21.503262	48.366436	-39.914692	48.019268	-18.375793	0.000000	0.000000	-20.551695	-33.775154	18.658848	-12.077763	7.125019	0.000000	0.000000	-3.595716	-7.906418	-3.073139
	9.675390	15.917200	-39.431599	-6.326911	-8.408270	-0.144104	0.000000	-0.000000	0.000000	-5.721044	-15.029174	-38.396366	2.925064	10.572746	30.852104	0.260849	8.886041	-16.632509	0.348860	-3.794993	-10.500623	0.000000	-0.000000	0.000000	28.656790	-3.572358	24.032177	-0.000000	0.000000	-0.000000	-0.664949	-1.604537	-16.066071	-0.094693	1.984587	-5.463064	8.214610	0.604319	13.119501	0.804099	1.921700	3.135420	-4.092500	0.886487	-3.791010	0.080654	1.751520	-12.542800	-4.775229	2.208120	-6.805060	-1.422790	1.051200	0.013177	0.080654	-0.000000	0.000000	-93.740593	14.600409	-24.452980	6.573305	-11.214893	-0.646081	0.000000	0.000000	-6.436329	24.772230	15.734044	7.132909	-7.125019	0.000000	0.000000	-2.793963	47.198402	-0.151683	0.080654	-0.000000	0.000000	78.386688	21.920210	48.454857	-40.074120	48.113754	-18.494400	-0.000000	0.000002	-20.503294	-33.855423	18.911127	-12.266414	7.125019	0.000000	0.000000	-3.607618	-7.598392	-3.105233
	9.693500	15.900000	-39.200901	-6.632830	-8.943591	-0.127227	0.000000	-0.000000	0.000000	-5.226439	-14.816566	-38.260899	2.953140	10.618808	31.004805	0.251022	9.084762	-16.723515	0.300732	-3.526009	-9.746824	0.000000	-0.000000	0.000000	28.719481	-3.325897	25.073338	-0.000000	0.000000	-0.000000	-0.623799	-1.505094	-15.538839	-0.089298	1.927344	-5.304906	8.433749	0.777351	13.023699	0.828861	2.163150	3.244840	-4.220321	1.015860	-3.582890	0.113769	1.739750	-12.612600	-4.528019	2.182630	-7.088591	-1.351190	1.043770	-0.070112	0.113769	0.000000	0.000000	-93.915787	14.800790	-24.439363	6.637568	-11.321220	-0.658642	0.000000	-0.000002	-6.044041	24.733320	16.038067	7.252894	-7.125019	0.000000	0.000000	-2.887161	47.521351	-0.179773	0.113769	0.000000	0.000000	78.428871	22.255671	48.197533	-40.197338	48.186371	-18.586180	-0.000000	0.000002	-20.497799	-33.667667	19.062681	-12.273484	7.125019	0.000000	0.000000	-3.465092	-7.466058	-2.991085
